<svg class="fill-current" viewBox="0 0 1024 1024" xmlns="http://www.w3.org/2000/svg">
    <path d="M261.576 667.248c-2.325-16.941-3.36-33.419-2.137-50.147 1.291-17.654 4.027-34.961 8.737-51.963 6.27-22.633 15.614-43.98 29.046-63.257 6.397-9.182 7.413-17.994 4.317-28.624l-27.426-98.455c-5.084-18.251-7.899-36.849-6.304-55.721 2.772-32.804 14.688-61.838 37.243-86.311 22.031-23.904 48.368-39.871 80.633-45.563 10.487-1.85 21.026-3.424 31.657-3.445l190.967.123c62.498.784 108.983 29.237 137.165 85.301 12.207 24.285 15.081 50.766 12.04 77.824-2.616 23.283-10.67 45.225-16.532 67.701l-17.717 64.408c-1.859 6.673-1.032 12.653 3.039 18.44 19.991 28.414 32.593 60.115 37.62 94.227 12.552 85.16-11.532 158.281-75.091 217.266-14.669 13.613-30.964 25.346-49.851 32.746-9.5 3.722-19.379 5.659-29.709 5.64-61.823-.112-123.651-.478-185.468.159-23.367.241-43.73-6.352-62.589-19.609-51.377-36.117-83.782-84.759-97.198-146.07-1.027-4.694-1.614-9.484-2.445-14.669m448.26-279.68l8.432-30.77c4.43-17.562 4.574-35.211-.1-52.751-12.468-46.788-57.197-83.302-109.766-82.268-61.63 1.212-123.302.377-184.956.173-9.001-.03-17.94-.141-26.84 1.279-62.294 9.942-103.791 71.581-88.574 132.783 9.618 38.684 20.626 77.022 30.998 115.518 4.163 15.452 2.164 29.866-6.788 43.358-31.348 47.245-43.834 98.632-32.883 154.8 10.641 54.573 38.433 97.985 85.221 128.745 10.067 6.619 20.778 11.211 33.051 11.213l190.461-.046c8.58-.012 16.851-2.02 24.426-6.194 11.559-6.369 22.661-13.539 32.355-22.49 54.588-50.406 73.597-112.904 62.193-185.44-4.711-29.968-17.023-56.916-33.929-81.897-8.131-12.015-10.292-25.222-6.678-39.07l23.376-86.943z"/>
    <path d="M504 269.043l94.992-.008c14.179.021 27.963 2.094 40.14 9.971 20.993 13.579 33.529 32.086 34.362 57.925.514 15.935-4.229 30.491-9.327 45.105-4.823 13.826-10.152 27.491-14.505 41.462-6.427 20.625-30.995 32.314-52.271 21.291-19.837-10.278-41.447-14.921-63.747-16.682-32.779-2.588-64.748.337-95.642 12.259-7.261 2.802-13.874 7.099-21.817 8.384-15.055 2.435-32.298-5.944-37.626-20.219-8.95-23.978-18.33-47.89-24.231-72.855-9.585-40.546 18.36-80.446 59.727-85.837 5.1-.665 10.298-.784 15.451-.798l74.493.002m-96.749 129.379c.801 2.362 1.516 4.758 2.423 7.079 1.294 3.309 3.317 4.505 6.992 2.941 22.946-9.765 46.773-15.956 71.708-18.004 21.639-1.778 43.199-1.541 64.652 1.633 19.484 2.882 38.305 8.384 56.399 16.192 3.561 1.536 5.435.386 6.534-2.785 6.965-20.09 15.669-39.617 20.063-60.545 3.841-18.296-11.285-37.437-30.048-37.491-61.981-.179-123.962-.177-185.943.041-10.553.037-19.226 4.771-25.069 13.984-6.299 9.933-6.246 20.597-2.946 31.253 4.672 15.086 9.964 29.98 15.234 45.704z"/>
</svg>
