<svg viewBox="0 0 1024 1024" xmlns="http://www.w3.org/2000/svg">
    <path d="M342.501 822.563c-37.833-29.923-63.495-67.845-78.057-113.31-7.6-23.728-10.823-48.077-11.008-73.072-.235-31.713 5.19-62.13 16.983-91.483 5.792-14.415 12.243-28.71 21.88-40.818 10.979-13.794 11.655-27.608 6.751-43.86-9.592-31.79-19.195-63.641-26.601-96.019-10.689-46.737-.283-89.065 29.622-126.412 22.694-28.341 52.399-45.19 88.04-51.539 7.66-1.365 15.414-2.437 23.258-2.435l196.959.113c77.347.537 132.611 55.091 145.073 121.605 4.468 23.851 1.746 47.265-4.64 70.433l-25.535 92.685c-3.039 10.707-1.902 20.089 4.626 29.232 17.703 24.794 30.038 52.069 36.816 81.823 4.187 18.38 5.588 36.963 5.862 55.819.422 28.964-4.052 56.957-14.22 83.965-20.643 54.834-55.919 97.104-108.359 124.236-11.659 6.032-24.061 9.009-37.427 8.959-65.153-.241-130.31-.5-195.457.134-19.895.194-37.195-5.737-53.75-15.633-7.16-4.28-13.866-9.211-20.815-14.42m13.846-493.712c.065 5.655-.883 11.547.373 16.925 5.106 21.878 13.134 42.874 21.064 63.836 2.775 7.336 9.215 13.05 19.644 7.175 29.487-16.609 61.558-24.992 95.058-26.863 30.914-1.726 61.789-.451 91.866 8.568 15.832 4.748 31.059 10.794 45.647 18.56 7.793 4.149 14.081 2.02 18.22-5.736.623-1.168 1.128-2.414 1.551-3.67l17.711-52.95c6.312-19.871 3.058-38.562-9.002-55.392-12.342-17.225-28.9-27.002-50.702-26.969-63.299.097-126.598.051-189.897-.002-4.535-.004-8.996.446-13.311 1.643-27.592 7.652-42.978 26.288-48.221 54.875z"/>
</svg>
